<svg xmlns="http://www.w3.org/2000/svg" xml:space="preserve" id="Layer_1" x="0" y="0" style="enable-background:new 0 0 1320 500" version="1.1" viewBox="0 0 1320 500"><style>.st1{fill:#1a5be9}.st2{fill:#111621}</style><linearGradient id="SVGID_1_" x1="273.628" x2="273.628" y1="16.319" y2="377.345" gradientUnits="userSpaceOnUse"><stop offset=".073" style="stop-color:#00ff85"/><stop offset="1" style="stop-color:#1a5be9"/></linearGradient><path d="M198.6 0v100c82.8 0 150 67.2 150 150s-67.2 150-150 150h-100v100h100c138.1 0 250-111.9 250-250S336.7 0 198.6 0z" style="fill-rule:evenodd;clip-rule:evenodd;fill:url(#SVGID_1_)"/><path d="M-1.4 400h100v100h-100zM-1.4 300h100v100h-100zM98.6 200h100v100h-100zM-1.4 100h100v100h-100z" class="st1"/><path d="M1312 352.7c-5-9.2-12.1-16.4-21.1-21.4-9.1-5.2-19.8-7.8-32.1-7.8-12.9 0-24.3 2.8-34 8.3-9.7 5.3-17.3 12.9-22.8 22.6-5.3 9.6-8 20.6-8 33.3 0 12.6 2.7 23.8 8 33.5 5.5 9.7 13.1 17.3 22.8 22.8 9.9 5.5 21.4 8.3 34.5 8.3 14.6 0 26.6-3.4 36.2-10.2 9.7-6.8 16.6-16 20.6-27.7h-28.9c-2.3 5-5.8 8.7-10.7 11.2-4.9 2.4-10.5 3.6-17 3.6-11.2 0-19.8-3.5-26-10.4-4.6-5.4-7.4-12.6-8.5-21.6h93.5c.3-1.9.6-3.9.7-5.8.2-1.9.2-4 .2-6.3.1-12.4-2.4-23.2-7.4-32.4zm-53.7-6.1c9.6 0 17 2.9 22.3 8.7 4.4 4.8 7 11.6 7.8 20.4h-62.9c1.3-7.6 4-13.7 8-18.5 6.2-7 14.5-10.6 24.8-10.6zM1184.6 350v-24h-33.8v-31.8H1120V326h-23.8v24h23.8v59c0 14.4 3.6 25.3 10.7 32.5 7.3 7.1 18.5 10.7 33.8 10.7 4.4 0 8.3-.3 11.9-1 3.6-.5 6.3-1.2 8.3-2.2v-23.8c-1.9.6-4 1.2-6.3 1.7-2.1.3-4.5.5-7.3.5-7 0-12.1-1.5-15.3-4.4-3.2-2.9-4.9-7.4-4.9-13.4V350h33.7zM1075.9 323.6c-9.7 0-18.1 2.8-25 8.3-5.3 4.2-9.4 9.9-12.4 17V326h-29.9v123.9h30.6v-64.6c0-11.3 2.9-19.6 8.7-24.8 5.8-5.2 14.7-7.8 26.5-7.8 2.1 0 3.9.1 5.3.2 1.4 0 2.6.2 3.4.5v-28.9c-1.4-.6-3.8-.9-7.2-.9zM980.3 437c-.5-4-.7-8-.7-11.9V369c0-14.9-4.4-26.1-13.1-33.8-8.7-7.8-21.6-11.7-38.6-11.7-16.4 0-29.4 3.6-39.1 10.7-9.7 7.1-15.2 16.4-16.5 27.9h29.4c1-5 3.6-8.8 7.8-11.4 4.4-2.8 10.2-4.1 17.5-4.1 7.4 0 13 1.7 16.5 5.1 3.7 3.2 5.6 8.1 5.6 14.6v6.2l-33 5c-15.1 2.3-26.7 6.7-35 13.4-8.3 6.6-12.4 15.6-12.4 27 0 10.5 3.6 18.9 10.9 25.3 7.4 6.2 17.4 9.2 29.9 9.2 10.7 0 19.7-2.3 27-6.8 5.9-3.7 10.4-8.7 13.7-15 .1 3.3.2 6.2.4 8.7.5 3.9 1.1 7.4 1.9 10.7H983c-1.1-4.7-2-9-2.7-13zm-40-14.6c-5.8 4.4-13.1 6.6-21.9 6.6-6 0-10.7-1.2-14.1-3.6-3.4-2.6-5.1-6.2-5.1-10.9 0-5.2 1.8-9.2 5.3-12.1 3.7-2.9 9.2-4.9 16.5-6.1l27.9-4.2v14.4c.1 6.2-2.8 11.5-8.6 15.9zM815.4 326v66.8c0 6.6-1.5 12.6-4.4 18-2.8 5.2-6.6 9.2-11.4 12.1-4.7 2.9-10.2 4.4-16.5 4.4-7 0-12.4-1.9-16.3-5.8-3.7-3.9-5.6-9.6-5.6-17.2V326h-30.6v84.5c0 7.9 1.6 15.1 4.9 21.4 3.4 6.3 8.2 11.3 14.3 15.1 6.3 3.6 13.8 5.3 22.3 5.3 10.8 0 20.2-2.7 28.2-8 6.8-4.6 12.1-10.5 16-17.5v23.1h29.9V326h-30.8zM696 316c-7.8-13.1-18.8-23.2-33-30.4-14.2-7.1-30.9-10.7-50-10.7H548.6v174.9h64.6c18.9 0 35.5-3.6 49.5-10.9 14.2-7.3 25.3-17.5 33.3-30.6 7.9-13.3 11.9-28.7 11.9-46.4 0-17.6-3.9-32.9-11.9-45.9zm-27.6 78.2c-4.9 9.6-12 17-21.4 22.3-9.4 5.3-20.7 8-34 8h-32.8V300.3H613c13.4 0 24.8 2.6 34 7.8 9.4 5 16.5 12.1 21.4 21.4 5 9.2 7.5 19.9 7.5 32.1 0 12.2-2.5 23.1-7.5 32.6zM1131.4 128c-5-9.2-12.1-16.4-21.1-21.4-9.1-5.2-19.8-7.8-32.1-7.8-12.9 0-24.3 2.8-34 8.3-9.7 5.3-17.3 12.9-22.8 22.6-5.3 9.6-8 20.6-8 33.3 0 12.6 2.7 23.8 8 33.5 5.5 9.7 13.1 17.3 22.8 22.8 9.9 5.5 21.4 8.3 34.5 8.3 14.6 0 26.6-3.4 36.2-10.2 9.7-6.8 16.6-16 20.6-27.7h-28.9c-2.3 5-5.8 8.7-10.7 11.2-4.9 2.4-10.5 3.6-17 3.6-11.2 0-19.8-3.5-26-10.4-4.6-5.4-7.4-12.6-8.5-21.6h93.5c.3-1.9.6-3.9.7-5.8.2-1.9.2-4 .2-6.3.2-12.5-2.3-23.2-7.4-32.4zm-53.6-6.1c9.5 0 17 2.9 22.3 8.7 4.4 4.8 7 11.6 7.8 20.4H1045c1.3-7.6 4-13.7 8-18.5 6.1-7.1 14.4-10.6 24.8-10.6zM991.1 128.9c-4.5-9.6-10.9-16.9-19.2-22.1-8.1-5.3-17.7-8-28.7-8-11.7 0-21.5 2.7-29.6 8-5.9 3.9-10.3 8.9-13.1 14.9v-20.5h-29.9v173.6h30.6v-70.4c2.4 5.9 6.1 10.9 11.2 14.8 7.4 5.5 17.1 8.3 28.9 8.3 11.5 0 21.5-2.7 29.9-8 8.4-5.3 15-12.9 19.7-22.6 4.7-9.7 7.1-21.1 7.1-34.2-.1-13-2.4-24.2-6.9-33.8zm-34 63.2c-5.8 6.8-13.7 10.2-23.6 10.2-9.9 0-17.8-3.4-23.8-10.2-6-6.8-9-16.4-9-28.9s3-22.1 9-28.9c6-7 13.8-10.4 23.6-10.4 9.9 0 17.7 3.4 23.6 10.2 6 6.8 9 16.4 9 28.9-.1 12.4-3 22.1-8.8 29.1zM810.6 225.1V101.2h30.6v123.9h-30.6zM810.6 50v30.6h30.6V50h-30.6zM750.6 225.1V50.2h30.6v174.9h-30.6zM691.4 225.1V101.2H722v123.9h-30.6zM667.9 75.3V50.2H548.6v174.9h31.6v-70.2H662v-25h-81.8V75.3zM691.4 50v30.6H722V50h-30.6z" class="st2"/></svg>